<svg xmlns="http://www.w3.org/2000/svg" viewBox="0 0 33.96 14"><defs><style>.cls-1{isolation:isolate;}.cls-2,.cls-3{mix-blend-mode:multiply;}.cls-3,.cls-4{fill:#9e2482;}</style></defs><title>logo-dark</title><g class="cls-1"><g id="Layer_2" data-name="Layer 2"><g id="Layer_1-2" data-name="Layer 1"><g class="cls-2"><path class="cls-3" d="M15.32,7.39,8.18.25A.86.86,0,0,0,7.57,0h0A.84.84,0,0,0,7,.27L0,7.55,1.24,8.73l.33-.34v3.73A1.88,1.88,0,0,0,3.45,14h8.43a1.88,1.88,0,0,0,1.88-1.88V8.26l.34.35Zm-3.27,4.73a.17.17,0,0,1-.17.16H3.45a.16.16,0,0,1-.16-.16V6.59l4.3-4.5,4.46,4.46Z"/><g class="cls-2"><path class="cls-4" d="M7.75,11.48a4.29,4.29,0,0,1-3-1.66l.76-.58a3.38,3.38,0,0,0,2.24,1.29h0A2.68,2.68,0,0,0,9.81,9.24l.76.58A3.56,3.56,0,0,1,7.75,11.48Z"/></g></g><g class="cls-2"><g class="cls-2"><path class="cls-4" d="M24.43,5.87H24a1.29,1.29,0,0,1-1.24-.81H21.11a.83.83,0,0,0-.92.9.85.85,0,0,0,.29.66.88.88,0,0,0,.6.24h1.09v.8H21A1.67,1.67,0,0,1,19.34,6a1.83,1.83,0,0,1,.42-1.2,1.44,1.44,0,0,1,1.13-.53h1.59a1.45,1.45,0,0,0-.53-1A1.08,1.08,0,0,0,21.24,3a1.49,1.49,0,0,0-.88.33L20,2.72a2,2,0,0,1,1.31-.48,1.74,1.74,0,0,1,1.41.7,3,3,0,0,1,.63,1.58.55.55,0,0,0,.28.45.76.76,0,0,0,.39.1h.36v.6A1.64,1.64,0,0,1,24.43,5.87ZM22,6.39h-.79V5.56H22Z"/><path class="cls-4" d="M25.05,7.13h-.8V6.29h.8ZM26.68,4.8a1,1,0,0,1-1.11,1.07H24.28v-.8h1a.52.52,0,0,0,.56-.57c0-.32,0-.59,0-.81s0-.62,0-.83h.87C26.67,4.17,26.68,4.81,26.68,4.8Zm-.44,2.33h-.79V6.29h.79Z"/><path class="cls-4" d="M26.54,7a1.75,1.75,0,0,0,1.8-1.78V2.86h.88V4.24a.86.86,0,0,0,.71.83h.92v.8H30a.85.85,0,0,1-.76-.51,2.33,2.33,0,0,1-2.15,2.3C27,7.5,26.78,7.27,26.54,7Z"/><path class="cls-4" d="M34,5.15c0,.48-.24.72-.74.72H30.69v-.8h2.05c.21,0,.32-.12.33-.38V4.46h-.71a1.28,1.28,0,0,1-1-.46A1.43,1.43,0,0,1,31,3a1.52,1.52,0,0,1,.56-1.23,1.32,1.32,0,0,1,1-.32C33.48,1.51,34,2,34,2.75Zm-.89-1.48c0-.68,0-1,0-1.11a.5.5,0,0,0-.12-.28.48.48,0,0,0-.42-.23c-.38,0-.63.35-.66.89a.67.67,0,0,0,.63.73ZM33,1h-.8V.18H33Z"/></g><path class="cls-4" d="M20.27,9.5v.9h2v.83h-2v1.61h-.92V8.67h3.18V9.5Z"/><path class="cls-4" d="M25.05,10.53a.94.94,0,0,0-.71.28,1.17,1.17,0,0,0-.26.85v1.18h-.91V9.64h.91v.65a1.37,1.37,0,0,1,.37-.53,1,1,0,0,1,.65-.18v.95Z"/><path class="cls-4" d="M28.65,11.45a.37.37,0,0,0,0,.11H26.41a.74.74,0,0,0,.27.47.8.8,0,0,0,.51.16,1.07,1.07,0,0,0,.41-.08,1.27,1.27,0,0,0,.37-.25l.52.46a1.67,1.67,0,0,1-.55.44,1.81,1.81,0,0,1-.76.16,1.85,1.85,0,0,1-.67-.12,1.72,1.72,0,0,1-.53-.34,1.63,1.63,0,0,1-.35-.53,1.78,1.78,0,0,1-.12-.67h0a1.91,1.91,0,0,1,.11-.64,1.74,1.74,0,0,1,.33-.54,1.46,1.46,0,0,1,.5-.35,1.5,1.5,0,0,1,.64-.14,1.47,1.47,0,0,1,.69.15,1.32,1.32,0,0,1,.49.38,1.57,1.57,0,0,1,.29.56,2.37,2.37,0,0,1,.09.65h0Zm-1.1-.95a.61.61,0,0,0-.46-.19.63.63,0,0,0-.46.19.87.87,0,0,0-.23.49h1.37A.89.89,0,0,0,27.55,10.5Z"/><path class="cls-4" d="M32.31,11.45a.37.37,0,0,0,0,.11H30.07a.74.74,0,0,0,.27.47.8.8,0,0,0,.51.16,1.07,1.07,0,0,0,.41-.08,1.27,1.27,0,0,0,.37-.25l.52.46a1.67,1.67,0,0,1-.55.44,1.81,1.81,0,0,1-.76.16,1.85,1.85,0,0,1-.67-.12,1.72,1.72,0,0,1-.53-.34,1.63,1.63,0,0,1-.35-.53,1.78,1.78,0,0,1-.12-.67h0a1.69,1.69,0,0,1,.12-.64,1.55,1.55,0,0,1,.32-.54,1.46,1.46,0,0,1,.5-.35,1.5,1.5,0,0,1,.64-.14,1.47,1.47,0,0,1,.69.15,1.32,1.32,0,0,1,.49.38,1.57,1.57,0,0,1,.29.56,2.37,2.37,0,0,1,.09.65h0Zm-1.1-.95a.61.61,0,0,0-.46-.19.63.63,0,0,0-.46.19.87.87,0,0,0-.23.49h1.37A.89.89,0,0,0,31.21,10.5Z"/><path class="cls-4" d="M33.67,13.57a1,1,0,0,1-.76.25h-.22l-.18,0v-.71l.19,0a.36.36,0,0,0,.24-.08.4.4,0,0,0,.09-.29V9.64h.9v3.15A1,1,0,0,1,33.67,13.57ZM33,9.29v-.8h1v.8Z"/></g></g></g></g></svg>