<svg xmlns="http://www.w3.org/2000/svg" viewBox="0 0 106.71 151.31"><defs><style>.cls-1{isolation:isolate;}.cls-2{fill:#f4cc13;}.cls-3{fill:#f15a3b;mix-blend-mode:multiply;}</style></defs><title>intiative</title><g class="cls-1"><g id="Layer_2" data-name="Layer 2"><g id="ICON_AW" data-name="ICON AW"><path class="cls-2" d="M30.07,130.63v-7.5c0-1.31,0-5.52,0-6.92-1.24-8.67-4.65-16.41-9.4-21.28C13.52,87.58,5.75,78.58,2.31,67.47A54.34,54.34,0,0,1,10,20.5C19.15,7.74,35.3.09,53.2,0h.3C71.4.09,87.55,7.74,96.75,20.5a54.34,54.34,0,0,1,7.65,47C101,78.58,93.19,87.58,86,94.93c-4.74,4.87-8.16,12.61-9.4,21.27,0,1.42,0,5.62,0,6.93v7.5H30.07Zm22.3-15h9.28a6.31,6.31,0,0,1,.05-.86c1.61-12.06,6.56-23.07,13.59-30.3C81.2,78.4,87.57,71.11,90.07,63a39.06,39.06,0,0,0-5.49-33.76C78.26,20.5,66.31,15,53.35,15S28.44,20.5,22.12,29.27A39,39,0,0,0,16.64,63c2.5,8.08,8.87,15.37,14.77,21.43,7,7.21,12,18.18,13.57,30.11a6.42,6.42,0,0,1,.07,1.05Z"/><rect class="cls-3" x="30.01" y="115.62" width="46.82" height="15"/><rect class="cls-3" x="30.01" y="136.31" width="46.82" height="15"/></g></g></g></svg>